<mxfile host="app.diagrams.net" modified="2021-08-04T08:13:12.138Z" agent="5.0 (Windows)" etag="Wc5GR4xhbsHRCPoATyG1" version="14.9.3" type="github">
  <diagram id="gD9zFze_iH9A4-duQnMR" name="Page-1">
    <mxGraphModel dx="2500" dy="2054" grid="1" gridSize="10" guides="1" tooltips="1" connect="1" arrows="1" fold="1" page="1" pageScale="1" pageWidth="827" pageHeight="1169" math="0" shadow="0">
      <root>
        <mxCell id="0" />
        <mxCell id="1" parent="0" />
        <mxCell id="Wq6ExzQXXfVbq-2wo47K-11" value="" style="rounded=0;whiteSpace=wrap;html=1;fillColor=#f5f5f5;strokeColor=#666666;fontColor=#333333;" parent="1" vertex="1">
          <mxGeometry x="20" y="20" width="700" height="370" as="geometry" />
        </mxCell>
        <mxCell id="Wq6ExzQXXfVbq-2wo47K-2" value="" style="rounded=1;whiteSpace=wrap;html=1;fillColor=#dae8fc;strokeColor=#6c8ebf;" parent="1" vertex="1">
          <mxGeometry x="30" y="30" width="680" height="270" as="geometry" />
        </mxCell>
        <mxCell id="Wq6ExzQXXfVbq-2wo47K-6" value="" style="shape=image;verticalLabelPosition=bottom;labelBackgroundColor=#ffffff;verticalAlign=top;aspect=fixed;imageAspect=0;image=https://external-content.duckduckgo.com/iu/?u=https%3A%2F%2Ftse1.mm.bing.net%2Fth%3Fid%3DOIP.B26wg8u7Y_An8LyqzJBvIgAAAA%26pid%3DApi%26h%3D160&amp;f=1;imageBorder=#000000;" parent="1" vertex="1">
          <mxGeometry x="-240" y="150" width="110" height="110" as="geometry" />
        </mxCell>
        <mxCell id="Wq6ExzQXXfVbq-2wo47K-12" value="" style="shape=image;verticalLabelPosition=bottom;labelBackgroundColor=#ffffff;verticalAlign=top;aspect=fixed;imageAspect=0;image=http://fc01.deviantart.net/fs70/i/2012/338/9/c/vmware_vsphere_client_replacement_icon_ios_style_by_flakshack-d5n1d46.png;" parent="1" vertex="1">
          <mxGeometry x="30" y="310" width="69.5" height="69.5" as="geometry" />
        </mxCell>
        <mxCell id="Wq6ExzQXXfVbq-2wo47K-14" value="Virtual Environement" style="text;html=1;strokeColor=none;fillColor=none;align=center;verticalAlign=middle;whiteSpace=wrap;rounded=0;fontStyle=1;fontSize=14;" parent="1" vertex="1">
          <mxGeometry x="230" y="334.75" width="222.32" height="20" as="geometry" />
        </mxCell>
        <mxCell id="HZT2olHdRoLlSG50N7E5-1" value="&lt;div&gt;DevOps Team&lt;/div&gt;" style="shape=image;html=1;verticalAlign=top;verticalLabelPosition=bottom;labelBackgroundColor=#ffffff;imageAspect=0;aspect=fixed;image=https://cdn3.iconfinder.com/data/icons/construction-294/32/Construction_engineer_config-128.png" vertex="1" parent="1">
          <mxGeometry x="-480" y="165" width="80" height="80" as="geometry" />
        </mxCell>
        <mxCell id="HZT2olHdRoLlSG50N7E5-3" value="" style="aspect=fixed;html=1;points=[];align=center;image;fontSize=12;image=img/lib/mscae/Docker.svg;" vertex="1" parent="1">
          <mxGeometry x="51.83" y="140" width="85.97" height="70.5" as="geometry" />
        </mxCell>
        <mxCell id="HZT2olHdRoLlSG50N7E5-18" value="" style="edgeStyle=orthogonalEdgeStyle;shape=flexArrow;rounded=0;orthogonalLoop=1;jettySize=auto;html=1;fontSize=14;endArrow=block;strokeWidth=2;" edge="1" parent="1" source="HZT2olHdRoLlSG50N7E5-5" target="Wq6ExzQXXfVbq-2wo47K-2">
          <mxGeometry relative="1" as="geometry" />
        </mxCell>
        <mxCell id="HZT2olHdRoLlSG50N7E5-5" value="Clients" style="pointerEvents=1;shadow=0;dashed=0;html=1;strokeColor=none;fillColor=#434445;aspect=fixed;labelPosition=center;verticalLabelPosition=bottom;verticalAlign=top;align=center;outlineConnect=0;shape=mxgraph.vvd.user_group;" vertex="1" parent="1">
          <mxGeometry x="820" y="117.80999999999999" width="67" height="94.37" as="geometry" />
        </mxCell>
        <mxCell id="HZT2olHdRoLlSG50N7E5-7" value="&lt;div&gt;Dépôt Git&lt;/div&gt;" style="shape=image;html=1;verticalAlign=top;verticalLabelPosition=bottom;labelBackgroundColor=#ffffff;imageAspect=0;aspect=fixed;image=https://cdn4.iconfinder.com/data/icons/socialcones/508/Github-128.png" vertex="1" parent="1">
          <mxGeometry x="-240" y="-20" width="70" height="70" as="geometry" />
        </mxCell>
        <mxCell id="Wq6ExzQXXfVbq-2wo47K-9" value="HedgeDoc" style="shape=image;verticalLabelPosition=bottom;labelBackgroundColor=#ffffff;verticalAlign=top;aspect=fixed;imageAspect=0;image=https://yunohost.org/user/images/HedgeDoc-Logo.png;" parent="1" vertex="1">
          <mxGeometry x="380" y="112.18" width="100" height="100" as="geometry" />
        </mxCell>
        <mxCell id="HZT2olHdRoLlSG50N7E5-9" value="Private network" style="swimlane;fillColor=#d80073;strokeColor=#A50040;fontColor=#ffffff;" vertex="1" parent="1">
          <mxGeometry x="200" y="65" width="310" height="200" as="geometry">
            <mxRectangle x="200" y="65" width="120" height="23" as="alternateBounds" />
          </mxGeometry>
        </mxCell>
        <mxCell id="HZT2olHdRoLlSG50N7E5-2" value="&lt;div&gt;MariaDB&lt;/div&gt;" style="aspect=fixed;html=1;points=[];align=center;image;fontSize=12;image=img/lib/mscae/aspect=fixed;html=1;perimeter=none;align=center;shadow=0;dashed=0;image;fontSize=12;image=img/lib/mscae/Azure_Database_for_MariaDB_servers.svg;" vertex="1" parent="HZT2olHdRoLlSG50N7E5-9">
          <mxGeometry x="40" y="37.5" width="95" height="125" as="geometry" />
        </mxCell>
        <mxCell id="HZT2olHdRoLlSG50N7E5-10" value="" style="shape=flexArrow;endArrow=classic;startArrow=classic;html=1;fillColor=#d5e8d4;strokeColor=#82b366;" edge="1" parent="1" source="HZT2olHdRoLlSG50N7E5-1" target="HZT2olHdRoLlSG50N7E5-7">
          <mxGeometry width="100" height="100" relative="1" as="geometry">
            <mxPoint x="-380" y="300" as="sourcePoint" />
            <mxPoint x="-390" y="60" as="targetPoint" />
            <Array as="points" />
          </mxGeometry>
        </mxCell>
        <mxCell id="HZT2olHdRoLlSG50N7E5-11" value="" style="shape=flexArrow;endArrow=block;html=1;endWidth=25.88235294117647;strokeWidth=2;endSize=11.882352941176471;" edge="1" parent="1" source="Wq6ExzQXXfVbq-2wo47K-6" target="Wq6ExzQXXfVbq-2wo47K-11">
          <mxGeometry width="50" height="50" relative="1" as="geometry">
            <mxPoint x="-120" y="210" as="sourcePoint" />
            <mxPoint x="18" y="204" as="targetPoint" />
            <Array as="points" />
          </mxGeometry>
        </mxCell>
        <mxCell id="HZT2olHdRoLlSG50N7E5-12" value="" style="shape=flexArrow;endArrow=block;html=1;endWidth=25.88235294117647;strokeWidth=2;endSize=11.882352941176471;" edge="1" parent="1" source="HZT2olHdRoLlSG50N7E5-1" target="Wq6ExzQXXfVbq-2wo47K-6">
          <mxGeometry width="50" height="50" relative="1" as="geometry">
            <mxPoint x="-370" y="188.5" as="sourcePoint" />
            <mxPoint x="-270" y="193" as="targetPoint" />
            <Array as="points" />
          </mxGeometry>
        </mxCell>
        <mxCell id="HZT2olHdRoLlSG50N7E5-19" value="" style="shadow=0;dashed=0;html=1;strokeColor=none;fillColor=#4495D1;labelPosition=center;verticalLabelPosition=bottom;verticalAlign=top;align=center;outlineConnect=0;shape=mxgraph.veeam.vm_linux;fontSize=14;" vertex="1" parent="1">
          <mxGeometry x="60" y="230" width="57.2" height="55.2" as="geometry" />
        </mxCell>
      </root>
    </mxGraphModel>
  </diagram>
</mxfile>
